<svg xmlns="http://www.w3.org/2000/svg" version="1.1" xmlns:xlink="http://www.w3.org/1999/xlink" xmlns:svgjs="http://svgjs.dev/svgjs" width="1000" height="1000" viewBox="0 0 1000 1000"><rect width="1000" height="1000" fill="#ffffff"></rect><g transform="matrix(0.7,0,0,0.7,149.57575902380376,386.5968368283653)"><svg viewBox="0 0 396 128" data-background-color="#ffffff" preserveAspectRatio="xMidYMid meet" height="323" width="1000" xmlns="http://www.w3.org/2000/svg" xmlns:xlink="http://www.w3.org/1999/xlink"><defs></defs><g id="tight-bounds" transform="matrix(1,0,0,1,0.23999918081960914,0.1999331533358486)"><svg viewBox="0 0 395.52 127.59988074808372" height="127.59988074808372" width="395.52"><g><svg viewBox="0 0 643.3020670439306 207.53758859173067" height="127.59988074808372" width="395.52"><g transform="matrix(1,0,0,1,247.7820670439306,61.15065601391383)"><svg viewBox="0 0 395.52 85.236276563903" height="85.236276563903" width="395.52"><g><svg viewBox="0 0 395.52 85.236276563903" height="85.236276563903" width="395.52"><g><svg viewBox="0 0 395.52 85.236276563903" height="85.236276563903" width="395.52"><g transform="matrix(1,0,0,1,0,0)"><svg width="395.52" viewBox="2.1500000953674316 -35.5 167.02999877929688 36" height="85.236276563903" data-palette-color="#fbeaab"><path d="M8-14.2L3.55-14.2Q2.8-14.2 2.75-14.45 2.7-14.7 2.7-15.3L2.7-15.3 2.7-34.05Q2.7-34.2 2.73-34.6 2.75-35 3.3-35L3.3-35 7.95-35Q11.1-35 13.15-33.98 15.2-32.95 16.18-30.78 17.15-28.6 17.15-25.1L17.15-25.1Q17.15-22 16.43-19.93 15.7-17.85 14.43-16.6 13.15-15.35 11.5-14.78 9.85-14.2 8-14.2L8-14.2ZM2.15 0L2.15 0 2.15-34.2Q2.15-34.6 2.33-34.8 2.5-35 3-35L3-35 5.4-35Q6-35 6.1-34.6 6.2-34.2 6.2-34.2L6.2-34.2 6.2-0.8Q6.2-0.4 6.03-0.25 5.85-0.1 5.03-0.05 4.2 0 2.15 0ZM6.1-31.45L6.1-17.95 8.4-17.95Q9.8-17.95 10.73-18.7 11.65-19.45 12.15-21.13 12.65-22.8 12.65-25.6L12.65-25.6Q12.65-27.35 12.3-28.68 11.95-30 11.08-30.73 10.2-31.45 8.7-31.45L8.7-31.45 6.1-31.45ZM32.05 0L20.2 0 20.2-34.2Q20.2-34.2 20.32-34.6 20.45-35 21.05-35L21.05-35 33.05-35Q33.05-33.35 33-32.6 32.95-31.85 32.8-31.6 32.65-31.35 32.3-31.35L32.3-31.35 24.25-31.35 24.25-3.65 32.85-3.65Q32.85-1.95 32.8-1.18 32.75-0.4 32.6-0.2 32.45 0 32.05 0L32.05 0ZM31.05-17.2L20.75-17.2 20.75-20.9 31.8-20.9Q31.8-18.6 31.7-17.9 31.6-17.2 31.05-17.2L31.05-17.2ZM41.15 0L41.15 0 41.15-34.4Q41.15-34.4 41.25-34.48 41.35-34.55 41.95-34.55L41.95-34.55 44.35-34.55Q45-34.55 45.1-34.48 45.2-34.4 45.2-34.4L45.2-34.4 45.2-0.8Q45.2-0.4 45.02-0.25 44.85-0.1 44-0.05 43.15 0 41.15 0ZM51.35-31.2L34.35-31.2 34.35-34.2Q34.35-35 35.2-35L35.2-35 52.2-35 52.2-32Q52.2-31.55 52-31.38 51.8-31.2 51.35-31.2L51.35-31.2ZM68.49-14.2L64.04-14.2Q63.29-14.2 63.24-14.45 63.19-14.7 63.19-15.3L63.19-15.3 63.19-34.05Q63.19-34.2 63.22-34.6 63.24-35 63.79-35L63.79-35 68.44-35Q71.59-35 73.64-33.98 75.69-32.95 76.67-30.78 77.64-28.6 77.64-25.1L77.64-25.1Q77.64-22 76.92-19.93 76.19-17.85 74.92-16.6 73.64-15.35 71.99-14.78 70.34-14.2 68.49-14.2L68.49-14.2ZM62.64 0L62.64 0 62.64-34.2Q62.64-34.6 62.82-34.8 62.99-35 63.49-35L63.49-35 65.89-35Q66.49-35 66.59-34.6 66.69-34.2 66.69-34.2L66.69-34.2 66.69-0.8Q66.69-0.4 66.52-0.25 66.34-0.1 65.52-0.05 64.69 0 62.64 0ZM66.59-31.45L66.59-17.95 68.89-17.95Q70.29-17.95 71.22-18.7 72.14-19.45 72.64-21.13 73.14-22.8 73.14-25.6L73.14-25.6Q73.14-27.35 72.79-28.68 72.44-30 71.57-30.73 70.69-31.45 69.19-31.45L69.19-31.45 66.59-31.45ZM79.24 0.1L79.24 0.1Q78.84 0.1 78.14 0.05 77.44 0 76.69-0.05L76.69-0.05 85.59-34.45Q85.74-35.15 87.14-35.15L87.14-35.15Q87.64-35.15 88.16-35.1 88.69-35.05 89.04-35L89.04-35 97.99-0.75Q98.09-0.35 97.76-0.13 97.44 0.1 96.24 0.1L96.24 0.1Q95.79 0.1 95.21 0.08 94.64 0.05 93.84 0L93.84 0 89.14-19.7Q88.74-21.4 88.39-23.15 88.04-24.9 87.76-26.53 87.49-28.15 87.39-29.35L87.39-29.35Q87.29-28.15 87.01-26.53 86.74-24.9 86.39-23.15 86.04-21.4 85.59-19.7L85.59-19.7 81.14-0.7Q81.04-0.3 80.74-0.1 80.44 0.1 79.24 0.1ZM93.79-8.9L81.84-8.9 81.84-12.6 93.79-12.6 93.79-8.9ZM102.84 0L102.84 0 102.84-34.4Q102.84-34.4 102.94-34.48 103.04-34.55 103.64-34.55L103.64-34.55 106.04-34.55Q106.69-34.55 106.79-34.48 106.89-34.4 106.89-34.4L106.89-34.4 106.89-0.8Q106.89-0.4 106.71-0.25 106.54-0.1 105.69-0.05 104.84 0 102.84 0ZM113.04-31.2L96.04-31.2 96.04-34.2Q96.04-35 96.89-35L96.89-35 113.89-35 113.89-32Q113.89-31.55 113.69-31.38 113.49-31.2 113.04-31.2L113.04-31.2ZM122.28-14.2L117.83-14.2Q117.08-14.2 117.03-14.45 116.98-14.7 116.98-15.3L116.98-15.3 116.98-34.05Q116.98-34.2 117.01-34.6 117.03-35 117.58-35L117.58-35 122.23-35Q125.38-35 127.43-33.98 129.48-32.95 130.46-30.78 131.43-28.6 131.43-25.1L131.43-25.1Q131.43-22 130.71-19.93 129.98-17.85 128.71-16.6 127.43-15.35 125.78-14.78 124.13-14.2 122.28-14.2L122.28-14.2ZM116.43 0L116.43 0 116.43-34.2Q116.43-34.2 116.56-34.6 116.68-35 117.28-35L117.28-35 119.68-35Q120.28-35 120.38-34.6 120.48-34.2 120.48-34.2L120.48-34.2 120.48-0.8Q120.48-0.4 120.31-0.25 120.13-0.1 119.28-0.05 118.43 0 116.43 0ZM129.73 0.1L129.73 0.1Q129.28 0.1 128.66 0.08 128.03 0.05 127.33 0L127.33 0Q127.08-4.3 126.31-7.23 125.53-10.15 124.66-11.88 123.78-13.6 123.13-14.35 122.48-15.1 122.48-15.1L122.48-15.1Q122.48-15.1 122.38-15.4 122.28-15.7 122.78-16L122.78-16 124.98-17.2Q125.58-17.2 125.83-16.75L125.83-16.75Q125.83-16.75 126.63-15.85 127.43-14.95 128.53-13.03 129.63-11.1 130.58-8.1 131.53-5.1 131.78-0.9L131.78-0.9Q131.78-0.35 131.48-0.13 131.18 0.1 129.73 0.1ZM120.38-31.45L120.38-17.95 122.68-17.95Q124.08-17.95 125.01-18.68 125.93-19.4 126.43-21.03 126.93-22.65 126.93-25.3L126.93-25.3Q126.93-27.2 126.58-28.6 126.23-30 125.36-30.73 124.48-31.45 122.98-31.45L122.98-31.45 120.38-31.45ZM143.43 0.5L143.43 0.5Q140.98 0.5 139.26-0.33 137.53-1.15 136.46-3.2 135.38-5.25 134.88-8.78 134.38-12.3 134.38-17.7L134.38-17.7Q134.38-24.35 135.43-28.25 136.48-32.15 138.61-33.83 140.73-35.5 143.98-35.5L143.98-35.5Q146.38-35.5 148.08-34.63 149.78-33.75 150.83-31.73 151.88-29.7 152.36-26.33 152.83-22.95 152.83-17.85L152.83-17.85Q152.83-10.95 151.86-6.95 150.88-2.95 148.81-1.23 146.73 0.5 143.43 0.5ZM143.58-3.7L143.58-3.7Q145.43-3.7 146.46-5.08 147.48-6.45 147.96-9.58 148.43-12.7 148.43-17.75L148.43-17.75Q148.43-22.75 148.03-25.73 147.63-28.7 146.66-30 145.68-31.3 143.88-31.3L143.88-31.3Q142.13-31.3 141.03-29.9 139.93-28.5 139.43-25.3 138.93-22.1 138.93-16.7L138.93-16.7Q138.93-12.05 139.36-9.2 139.78-6.35 140.81-5.03 141.83-3.7 143.58-3.7ZM168.38 0L156.48 0 156.48-33.85Q156.48-34.4 156.68-34.65 156.88-34.9 157.73-34.95 158.58-35 160.58-35L160.58-35 160.58-3.8 169.18-3.8 169.18-0.8Q169.18-0.3 168.95-0.15 168.73 0 168.38 0L168.38 0Z" opacity="1" transform="matrix(1,0,0,1,0,0)" fill="#000000" class="undefined-text-0" data-fill-palette-color="primary" id="text-0"></path></svg></g></svg></g></svg></g></svg></g><g><svg viewBox="0 0 207.53758859173067 207.53758859173067" height="207.53758859173067" width="207.53758859173067"><g><svg></svg></g><g id="icon-0"><svg viewBox="0 0 207.53758859173067 207.53758859173067" height="207.53758859173067" width="207.53758859173067"><g><path d="M0 103.769c0-57.31 46.459-103.769 103.769-103.769 57.31 0 103.769 46.459 103.769 103.769 0 57.31-46.459 103.769-103.769 103.769-57.31 0-103.769-46.459-103.769-103.769zM103.769 199.851c53.065 0 96.082-43.017 96.082-96.082 0-53.065-43.017-96.082-96.082-96.082-53.065 0-96.082 43.017-96.082 96.082 0 53.065 43.017 96.082 96.082 96.082z" data-fill-palette-color="accent" fill="#000000" stroke="transparent"></path></g><g transform="matrix(1,0,0,1,43.71798403014142,45.797039028151296)"><svg viewBox="0 0 120.10162053144782 115.94351053542808" height="115.94351053542808" width="120.10162053144782"><g><svg xmlns="http://www.w3.org/2000/svg" xmlns:xlink="http://www.w3.org/1999/xlink" version="1.1" x="0" y="0" viewBox="5.0008721351623535 6.559000015258789 89.9989013671875 86.88299560546875" enable-background="new 0 0 100 100" xml:space="preserve" height="115.94351053542808" width="120.10162053144782" class="icon-x-0" data-fill-palette-color="accent" id="x-0"><g fill="#fbeaab" data-fill-palette-color="accent"><path d="M72.256 22.063c0.491 0.188 0.994 0.28 1.494 0.28h0.002c3.21 0 5.608-3.71 6.318-7.374 0.752-3.868-0.419-6.932-3.054-7.992-0.7-0.28-1.329-0.418-1.926-0.418-0.345 0-0.687 0.048-1.012 0.144-3.589 1.061-5.604 5.122-5.737 8.589C68.217 18.549 69.681 21.079 72.256 22.063zM69.962 15.354c0.109-2.819 1.751-6.264 4.576-7.1 0.511-0.149 1.102-0.082 1.873 0.227 2.237 0.901 2.534 3.783 2.067 6.183-0.576 2.979-2.5 6.061-4.727 6.061-0.307 0-0.614-0.059-0.917-0.175C70.096 19.505 69.912 16.568 69.962 15.354z" fill="#000000" data-fill-palette-color="accent"></path><path d="M83.467 28.776c3.564 0 8.922-3.415 9.859-7.248 0.317-1.291 0.346-3.72-2.988-5.452-0.749-0.394-1.595-0.591-2.513-0.591-3.868 0-8.48 3.649-9.31 7.368-0.527 2.362 0.569 4.376 3.014 5.522C82.088 28.641 82.742 28.776 83.467 28.776zM80.097 23.207c0.66-2.966 4.635-6.102 7.729-6.102 0.656 0 1.251 0.137 1.768 0.407 1.818 0.946 2.526 2.133 2.161 3.632-0.69 2.807-5.104 6.01-8.287 6.01-0.486 0-0.906-0.082-1.251-0.241C80.448 26.081 79.733 24.835 80.097 23.207z" fill="#000000" data-fill-palette-color="accent"></path><path d="M61.88 23.918h0.065c0.064 0 0.126-0.009 0.188-0.021 1.791-0.431 3.261-1.841 4.143-3.972 1.154-2.804 1.062-6.217-0.227-8.303-1.107-1.801-2.969-2.92-4.86-2.92-0.777 0-1.504 0.191-2.165 0.563-2.86 1.62-3.193 5.289-2.552 8.18C57.131 20.412 59.103 23.7 61.88 23.918zM59.824 10.675c0.451-0.254 0.932-0.381 1.433-0.381 1.279 0 2.586 0.834 3.416 2.178 0.999 1.622 1.044 4.561 0.104 6.836-0.374 0.909-1.246 2.502-2.87 2.974l-0.022 0.006-0.023-0.004c-1.593-0.245-3.193-2.427-3.809-5.186C57.536 14.771 57.729 11.86 59.824 10.675z" fill="#000000" data-fill-palette-color="accent"></path><path d="M94.071 31.771c-1.076-1.361-2.753-2.109-4.72-2.109-2.627 0-5.406 1.298-7.078 3.305-1.224 1.47-1.726 3.213-1.415 4.903 0.012 0.064 0.032 0.128 0.063 0.193 0.51 1.099 0.962 1.835 1.772 2.342l0.497 0.256c1.171 0.604 2.37 1.223 3.595 1.25l0.325 0.011c2.738-0.002 5.936-2.178 7.276-4.959C95.303 35.069 95.188 33.177 94.071 31.771zM92.929 36.259c-1.075 2.229-3.687 4.043-5.819 4.043l-0.252-0.009c-0.887-0.021-1.877-0.529-2.922-1.07l-0.441-0.224c-0.353-0.225-0.646-0.645-1.05-1.505l-0.012-0.029c-0.232-1.505 0.465-2.714 1.089-3.464 1.352-1.627 3.695-2.717 5.83-2.717 1.034 0 2.472 0.258 3.45 1.493C93.733 33.95 93.385 35.318 92.929 36.259z" fill="#000000" data-fill-palette-color="accent"></path><path d="M73.671 27.358c-2.127-1.526-4.659-2.303-7.529-2.303-4.809 0-10.143 2.303-13.919 6.004-1.449 1.419-2.771 2.832-2.991 4.52-0.476 3.719 3.648 5.27 6.961 6.516l0.037 0.014c1.489 0.56 2.893 1.091 3.735 1.72 1.253 0.937 2.117 2.542 3.034 4.242 1.328 2.476 2.693 5.013 5.415 5.732 0.274 0.072 0.558 0.109 0.846 0.109 3.384 0 6.288-4.9 7.474-7.796C79.145 40.206 79.79 31.746 73.671 27.358zM75.229 45.505c-1.342 3.29-3.89 6.787-5.968 6.787-0.147 0-0.294-0.018-0.434-0.054-2.04-0.54-3.18-2.657-4.388-4.899-0.965-1.801-1.954-3.647-3.507-4.809-1.031-0.771-2.558-1.345-4.171-1.952-3.652-1.374-6.217-2.522-5.924-4.791 0.151-1.171 1.277-2.357 2.518-3.571 3.485-3.416 8.385-5.54 12.785-5.54 2.523 0 4.738 0.674 6.584 2.001C78.082 32.511 77.421 40.14 75.229 45.505z" fill="#000000" data-fill-palette-color="accent"></path><path d="M60.206 67.699c-2.286-0.938-4.874-0.998-7.213-0.164l-0.182 0.063-0.081-0.175L33.642 26.015l0.167-0.099c4.292-2.457 6.171-7.792 4.376-12.405-1.521-3.909-5.212-6.434-9.405-6.434-1.251 0-2.481 0.229-3.657 0.687-2.816 1.094-4.979 3.373-5.927 6.247l-0.07 0.217-0.212-0.086c-1.224-0.501-2.509-0.755-3.817-0.755-4.117 0-7.783 2.461-9.343 6.269-2.109 5.149 0.364 11.051 5.513 13.159 2.289 0.94 4.88 0.998 7.212 0.167l0.182-0.067 0.082 0.18 19.087 41.405-0.168 0.099c-4.289 2.457-6.168 7.791-4.376 12.409 1.522 3.907 5.216 6.434 9.412 6.434 1.251 0 2.481-0.233 3.657-0.69 2.816-1.098 4.976-3.377 5.92-6.249l0.07-0.219 0.212 0.088c1.225 0.503 2.511 0.757 3.822 0.757 4.116 0 7.783-2.461 9.341-6.269 1.021-2.493 1.01-5.235-0.031-7.72C64.648 70.652 62.699 68.722 60.206 67.699zM62.723 82.626c-1.605 1.818-3.915 2.86-6.342 2.862-1.909 0-3.75-0.647-5.242-1.826-0.158 4.165-3.422 7.678-7.615 8.094-0.28 0.03-0.565 0.042-0.849 0.042-4.351 0-7.961-3.273-8.395-7.615-0.323-3.222 1.262-6.39 4.035-8.069 0.292-0.176 0.603-0.337 0.93-0.482 0.244-0.111 0.497-0.209 0.755-0.296L19.435 30.729c-0.225 0.136-0.463 0.265-0.713 0.383-0.328 0.156-0.658 0.29-0.975 0.394-0.86 0.282-1.754 0.426-2.661 0.426-2.063 0-4.047-0.75-5.59-2.119-1.693-1.491-2.703-3.554-2.843-5.807-0.139-2.254 0.605-4.425 2.098-6.119 1.604-1.816 3.914-2.858 6.341-2.858 1.909 0 3.753 0.645 5.244 1.824 0.159-4.165 3.419-7.678 7.61-8.097 0.277-0.026 0.561-0.041 0.84-0.041 4.359 0 7.973 3.275 8.405 7.619 0.319 3.225-1.267 6.392-4.036 8.071-0.297 0.18-0.612 0.341-0.932 0.482C31.974 25 31.719 25.1 31.47 25.183l20.566 44.604c0.232-0.142 0.471-0.269 0.712-0.383 0.342-0.16 0.66-0.287 0.976-0.392 0.86-0.282 1.756-0.428 2.664-0.428 2.057 0 4.042 0.75 5.588 2.113 1.693 1.493 2.704 3.556 2.845 5.811C64.96 78.763 64.216 80.934 62.723 82.626z" fill="#000000" data-fill-palette-color="accent"></path></g></svg></g></svg></g></svg></g></svg></g></svg></g></svg><rect width="395.52" height="127.59988074808372" fill="none" stroke="none" visibility="hidden"></rect></g></svg></g></svg>